<?xml version="1.0" standalone="no"?>
<!DOCTYPE svg PUBLIC "-//W3C//DTD SVG 20010904//EN"
 "http://www.w3.org/TR/2001/REC-SVG-20010904/DTD/svg10.dtd">
<svg version="1.0" xmlns="http://www.w3.org/2000/svg"
 width="225.000000pt" height="225.000000pt" viewBox="0 0 225.000000 225.000000"
 preserveAspectRatio="xMidYMid meet">

<g transform="translate(0.000000,225.000000) scale(0.100000,-0.100000)"
fill="#000000" stroke="none">
<path d="M0 1125 l0 -1125 1125 0 1125 0 0 1125 0 1125 -1125 0 -1125 0 0
-1125z m1120 684 c0 -14 -31 -59 -40 -59 -4 0 -13 14 -20 31 -11 26 -10 36 4
66 l17 36 20 -32 c10 -17 19 -36 19 -42z m-174 -60 c-108 -25 -157 -134 -106
-234 23 -45 24 -49 10 -40 -21 13 -50 86 -50 127 0 85 71 159 150 157 l35 -1
-39 -9z m333 -4 c76 -39 108 -128 74 -206 -11 -24 -27 -50 -35 -56 -9 -8 -6 5
9 36 51 102 -3 209 -117 232 l-35 7 38 1 c21 0 51 -6 66 -14z m-591 -72 c-14
-16 -31 -38 -37 -51 -18 -34 -16 -129 4 -158 8 -13 12 -24 7 -24 -12 0 -39 50
-46 87 -11 49 10 107 49 142 44 38 58 40 23 4z m840 -33 c14 -22 22 -48 22
-77 0 -45 -29 -128 -37 -106 -2 7 0 21 6 32 25 46 5 138 -42 190 l-22 25 25
-15 c14 -9 35 -31 48 -49z m-439 -57 c-1 -70 -4 -99 -9 -83 -14 44 -9 190 6
190 2 0 4 -48 3 -107z m-189 93 c0 -3 -4 -8 -10 -11 -5 -3 -10 -1 -10 4 0 6 5
11 10 11 6 0 10 -2 10 -4z m46 -27 c-19 -23 -26 -42 -27 -77 -1 -41 -2 -44 -9
-19 -11 36 5 93 33 112 31 22 32 19 3 -16z m303 -16 c6 -13 10 -41 10 -61 l-2
-37 -6 43 c-4 23 -17 56 -30 73 -20 27 -21 29 -2 18 11 -7 24 -24 30 -36z
m-520 -52 c-6 -17 -8 -44 -5 -59 5 -23 5 -24 -5 -9 -14 23 2 119 17 104 2 -2
-1 -18 -7 -36z m288 -28 c-2 -16 -4 -5 -4 22 0 28 2 40 4 28 2 -13 2 -35 0
-50z m433 -2 c0 -25 -4 -52 -9 -59 -5 -8 -6 7 -3 36 2 30 -1 59 -9 73 -11 22
-11 23 4 10 12 -9 17 -29 17 -60z m-295 2 c-9 -50 -17 -34 -9 18 4 24 9 38 12
31 2 -7 1 -29 -3 -49z m345 -33 c0 -5 -4 -10 -10 -10 -5 0 -10 5 -10 10 0 6 5
10 10 10 6 0 10 -4 10 -10z m-207 -121 c37 -6 67 -12 67 -12 0 -1 -126 -2
-280 -2 -275 0 -313 7 -127 24 102 10 236 5 340 -10z m-38 -109 c17 -4 -64 -7
-180 -7 -117 0 -190 3 -165 7 61 9 308 9 345 0z m-46 -430 c5 0 14 7 21 15 7
8 29 15 50 15 48 0 60 -25 60 -130 0 -73 -2 -80 -20 -80 -18 0 -20 7 -20 84 0
100 -5 116 -35 116 -43 0 -60 -34 -60 -121 0 -72 -2 -79 -20 -79 -19 0 -20 7
-20 152 0 127 3 154 15 159 12 5 16 -6 18 -62 2 -38 7 -69 11 -69z m496 106
c62 -26 89 -105 65 -191 -14 -50 -50 -83 -97 -89 -15 -2 -20 -1 -11 1 48 12
76 110 59 201 -11 57 -30 75 -88 83 l-48 6 43 2 c23 0 58 -5 77 -13z m241
-137 l-1 -141 -28 -24 c-16 -14 -40 -24 -55 -23 -21 1 -22 2 -7 6 40 9 45 30
45 180 0 143 0 143 23 143 23 0 23 0 23 -141z m-340 100 c9 -16 -20 -41 -39
-33 -26 10 -21 39 8 42 13 1 27 -3 31 -9z m-1101 -96 c8 -67 22 -100 44 -106
26 -6 41 3 62 37 10 17 19 25 19 17 0 -8 -18 -31 -40 -53 -40 -37 -41 -38 -67
-21 -31 21 -49 62 -59 131 -6 48 -5 52 14 52 17 0 21 -9 27 -57z m89 41 c3 -9
4 -20 0 -25 -8 -13 -32 -11 -37 4 -11 32 25 53 37 21z m242 -19 c7 -19 14 -64
14 -100 0 -45 4 -65 13 -65 6 0 4 -5 -6 -11 -22 -13 -37 -4 -37 22 0 11 -3 18
-7 16 -5 -3 -6 26 -5 65 3 55 0 73 -14 89 -16 18 -16 19 5 19 16 0 26 -10 37
-35z m142 24 c-35 -20 -21 -47 41 -79 35 -17 62 -38 66 -50 8 -26 -19 -70 -42
-70 -15 0 -15 1 1 13 31 23 15 50 -46 79 -34 16 -59 35 -63 48 -8 26 19 70 43
70 16 -1 16 -1 0 -11z m622 -104 c0 -95 0 -95 -25 -95 -25 0 -25 0 -25 95 0
95 0 95 25 95 25 0 25 0 25 -95z m-860 66 c0 -23 -23 -34 -39 -18 -18 18 -13
33 14 35 19 1 25 -3 25 -17z m340 13 c0 -29 -41 -46 -55 -24 -10 17 4 30 30
28 14 -1 25 -3 25 -4z m-332 -76 c-23 -8 -28 -16 -28 -43 0 -24 7 -39 22 -49
19 -14 20 -16 5 -16 -26 0 -55 17 -67 40 -20 37 21 79 75 79 15 -1 13 -3 -7
-11z m230 -45 c5 -17 -26 -29 -40 -15 -6 6 -7 15 -3 22 9 14 37 9 43 -7z m881
-7 c15 -18 3 -48 -18 -44 -10 2 -16 14 -17 31 -1 29 16 36 35 13z m-39 -61
c14 -19 14 -19 -2 -6 -10 7 -18 18 -18 24 0 6 1 8 3 6 1 -2 9 -13 17 -24z
m-807 8 c-7 -2 -19 -2 -25 0 -7 3 -2 5 12 5 14 0 19 -2 13 -5z m-436 -59 c8
-21 -13 -42 -28 -27 -13 13 -5 43 11 43 6 0 13 -7 17 -16z m605 -268 c14 -20
8 -36 -11 -36 -11 0 -21 6 -24 13 -2 6 -8 9 -11 5 -4 -3 6 -19 24 -34 24 -22
30 -35 28 -59 -3 -28 -6 -30 -43 -30 -37 0 -40 2 -43 28 -3 23 0 28 15 25 10
-2 18 -8 18 -15 0 -6 3 -15 8 -19 4 -4 7 0 7 9 0 8 -13 29 -30 45 -35 36 -37
45 -9 73 21 21 56 19 71 -5z m-552 -1 c0 -8 -7 -15 -15 -15 -8 0 -15 -7 -15
-15 0 -8 7 -15 15 -15 8 0 15 -5 15 -10 0 -6 -7 -13 -15 -16 -9 -4 -15 -19
-15 -40 0 -27 -4 -34 -20 -34 -18 0 -20 7 -20 80 l0 80 35 0 c24 0 35 -5 35
-15z m50 5 c0 -5 -9 -10 -20 -10 -11 0 -20 5 -20 10 0 6 9 10 20 10 11 0 20
-4 20 -10z m60 -70 c0 -79 0 -80 -25 -80 -25 0 -25 1 -25 80 0 79 0 80 25 80
25 0 25 -1 25 -80z m720 -1 l0 -80 -42 3 -43 3 0 60 c0 55 2 60 23 63 12 2 22
10 22 18 0 8 9 14 20 14 18 0 20 -7 20 -81z m60 71 c0 -5 -9 -10 -20 -10 -11
0 -20 5 -20 10 0 6 9 10 20 10 11 0 20 -4 20 -10z m-270 -10 c0 -5 13 -10 29
-10 27 0 29 -2 27 -39 -1 -21 1 -47 5 -57 5 -12 8 3 8 39 1 50 3 57 21 57 18
0 20 -7 20 -65 l0 -65 -45 0 c-48 0 -49 1 -59 75 -2 17 -3 6 -1 -22 1 -49 0
-53 -21 -53 -20 0 -23 6 -26 63 -2 34 -2 68 0 75 5 14 42 17 42 2z m-236 -15
c11 -11 13 -25 9 -47 -5 -26 -3 -30 10 -25 12 5 15 -1 15 -24 -1 -30 -2 -30
-52 -27 -53 3 -67 18 -50 56 4 9 6 25 5 35 -3 21 16 47 35 47 7 0 19 -7 28
-15z m-334 -60 c0 -58 -2 -65 -20 -65 -18 0 -20 7 -20 65 0 58 2 65 20 65 18
0 20 -7 20 -65z m210 0 c0 -58 -2 -65 -20 -65 -17 0 -20 7 -22 58 l-2 57 -3
-57 c-3 -50 -7 -58 -23 -58 -17 0 -20 8 -22 58 l-2 57 -3 -57 c-3 -50 -7 -58
-23 -58 -18 0 -20 7 -20 65 l0 65 70 0 70 0 0 -65z m630 0 c0 -58 -2 -65 -20
-65 -18 0 -20 7 -20 65 0 58 2 65 20 65 18 0 20 -7 20 -65z m100 46 c26 -50 4
-111 -40 -111 -33 0 -50 23 -50 65 0 14 5 35 10 46 14 26 66 26 80 0z"/>
<path d="M1074 1826 c-8 -21 3 -49 16 -41 5 3 10 15 10 25 0 25 -18 36 -26 16z"/>
<path d="M1413 265 c0 -27 2 -38 4 -22 2 15 2 37 0 50 -2 12 -4 0 -4 -28z"/>
<path d="M981 234 c0 -11 3 -14 6 -6 3 7 2 16 -1 19 -3 4 -6 -2 -5 -13z"/>
<path d="M1577 303 c-8 -15 -6 -73 4 -78 5 -4 9 14 9 39 0 44 -4 55 -13 39z"/>
</g>
</svg>
